<?xml version="1.0" standalone="no"?> <!DOCTYPE svg PUBLIC "-//W3C//DTD SVG 1.0//EN" "http://www.w3.org/TR/2001/REC-SVG-20010904/DTD/svg10.dtd" > <svg xmlns="http://www.w3.org/2000/svg" width="100%" height="100%">
<defs >
<font id="supermarket" horiz-adv-x="775" ><font-face
    font-family="supermarket"
    units-per-em="2048"
    panose-1="2 0 0 0 0 0 0 0 0 0"
    ascent="1163"
    descent="-401"
    alphabetic="0" />
<missing-glyph horiz-adv-x="1536" d="M256 0V1280H1280V0H256ZM1238 32Q1248 32 1248 42V1238Q1248 1248 1238 1248H298Q288 1248 288 1238V42Q288 32 298 32H1238Z" />
<glyph unicode=" " glyph-name="space" horiz-adv-x="566" />
<glyph unicode="!" glyph-name="exclam" horiz-adv-x="504" d="M374 -205Q374 -257 340 -292Q305 -327 255 -327Q204 -327 169 -292Q135 -257 135 -205Q135 -154 169 -120Q204 -85 255 -85Q302 -85 339 -120Q374 -155 374 -205ZM324 0H189L133 1261H380L324 0Z" />
<glyph unicode="&quot;" glyph-name="quotedbl" horiz-adv-x="575" d="M259 1201L236 804H123L99 1201H259ZM473 1201L450 804H337L313 1201H473Z" />
<glyph unicode="#" glyph-name="numbersign" horiz-adv-x="1105" d="M837 713L787 505H962V355H737L674 142H505L568 355H389L326 142H157L220 355H87V505H269L319 713H144V862H369L432 1074H601L538 862H717L780 1074H949L886 862H1019V712L837 713ZM668 713H488L438
505H618L668 713Z" />
<glyph unicode="$" glyph-name="dollar" horiz-adv-x="994" d="M562 679Q619 653 675 624T777 553T850 453T878 312V303Q878 228 854 172T787 76T687 15T562 -15V-181H402V-13Q318 -2 259 23T160 74Q114 104 84 139L190 243Q220 214 276 185T402 142V564Q352 587
306 617T225 690T169 794T147 938Q147 1008 167 1061T223 1152T304 1213T402 1247V1418H562V1252Q615 1245 658 1231T732 1201Q768 1183 797 1163L879 1107L790 973L723 1017Q689 1040 645 1057T562 1086V679ZM309 938Q309 878 334 838T402 765V1075Q360 1055 335
1020T309 938ZM562 138Q634 153 674 197T714 303Q714 340 703 369T671 420T622 461T562 494V138Z" />
<glyph unicode="%" glyph-name="percent" horiz-adv-x="1263" d="M970 1330L439 -186H280L810 1330H970ZM309 1075Q348 1075 382 1060T441 1020T482 960T497 887Q497 848 482 814T442 755T382 715T309 700Q270 700 236 714T177 754T137 814T122 887Q122 926 136
960T176 1019T236 1060T309 1075ZM309 825Q335 825 353 843T372 887Q372 914 354 931T309 949Q283 949 265 932T247 887Q247 861 265 843T309 825ZM940 444Q979 444 1013 430T1072 390T1112 330T1127 257Q1127 218 1113 184T1073 125T1013 85T940 70Q901 70 867
84T808 124T768 184T753 257Q753 296 767 330T807 389T867 429T940 444ZM940 195Q966 195 984 213T1003 257Q1003 283 985 301T940 319Q914 319 896 301T878 257Q878 231 896 213T940 195Z" />
<glyph unicode="&amp;" glyph-name="ampersand" horiz-adv-x="1251" d="M1008 -1L833 197Q812 176 789 155T742 114Q719 94 695 78T647 45Q623 30 598 18T546 -5Q520 -15 494 -20T441 -28Q433 -29 424 -29T407 -30Q360 -30 311 -13Q280 -2 252 13T199 50Q175 71
155 96T120 150Q90 208 82 277Q81 285 81 293T81 309Q81 337 85 363T99 415Q110 448 126 477T162 534Q182 561 206 586T257 635Q284 660 313 683T368 728Q343 754 322 780T283 835Q266 861 256 891T243 954Q239 1005 257 1054Q274 1105 304 1142Q321 1161 340 1177T381
1204Q403 1216 428 1223T479 1232Q505 1234 530 1231T579 1219Q602 1211 622 1198T660 1171Q676 1156 691 1137T716 1096Q738 1051 742 1004Q747 954 735 911Q728 890 720 870T699 833Q676 794 644 764Q627 747 610 730T575 698L830 409L961 560L1079 472L929 300Q992
228 1059 150T1190 -1H1008ZM431 584L385 548Q345 517 307 476Q290 457 275 436T249 394Q237 371 233 347T231 297Q240 217 295 160Q351 107 428 113Q466 117 505 133T581 177Q617 205 657 239T732 308L465 611L431 584ZM594 992Q589 1034 559 1063Q528 1090 487
1088Q448 1082 419 1046Q389 1009 394 959Q396 941 404 921T426 883Q437 866 450 849T481 812Q501 831 521 851T561 891Q598 931 594 991V992Z" />
<glyph unicode="&apos;" glyph-name="quotesingle" horiz-adv-x="304" d="M229 1201L206 804H93L69 1201H229Z" />
<glyph unicode="(" glyph-name="parenleft" horiz-adv-x="667" d="M597 -309Q505 -309 420 -278T269 -192T164 -58T124 116V1114Q124 1211 164 1284T270 1406T422 1481T597 1509V1359Q543 1359 488 1345T387 1300T313 1224T284 1114V116Q284 53 313 2T387 -84T488
-139T597 -159V-309Z" />
<glyph unicode=")" glyph-name="parenright" horiz-adv-x="708" d="M101 -159Q154 -159 209 -140T310 -85T385 2T414 116V1114Q414 1177 385 1223T311 1300T211 1344T101 1359V1509Q191 1507 276 1482T427 1407T534 1284T574 1114V116Q574 20 535 -58T430 -191T279
-278T101 -309V-159Z" />
<glyph unicode="*" glyph-name="asterisk" horiz-adv-x="719" d="M631 1006H505L594 917L508 831L419 921V794H298V921L209 831L123 917L213 1006H86V1127H213L123 1216L209 1302L298 1213V1339H419V1213L508 1302L594 1216L505 1127H631V1006Z" />
<glyph unicode="+" glyph-name="plus" horiz-adv-x="1196" d="M1052 460H693V101H533V460H174V620H533V979H693V620H1052V460Z" />
<glyph unicode="," glyph-name="comma" horiz-adv-x="357" d="M157 134H301L194 -267H50L157 134Z" />
<glyph unicode="-" glyph-name="hyphen" horiz-adv-x="829" d="M742 620V470H67V620H742Z" />
<glyph unicode="." glyph-name="period" horiz-adv-x="436" d="M221 0Q198 0 179 8T145 31T122 65T113 108Q113 130 121 149T144 184T178 207T221 216Q243 216 262 208T297 184T320 150T329 108Q329 85 321 66T297 32T263 9T221 0Z" />
<glyph unicode="/" glyph-name="slash" horiz-adv-x="1006" d="M90 -349L737 1500H897L250 -349H90Z" />
<glyph unicode="0" glyph-name="zero" horiz-adv-x="998" d="M501 1260Q577 1260 635 1244T738 1200T813 1138T864 1067Q912 983 921 875V370Q912 261 864 177Q844 141 813 107T738 45T636 2T501 -15Q424 -15 366 1T263 45T189 106T138 177Q90 261 81 370V875Q90
983 138 1067Q158 1103 188 1137T263 1199T365 1243T501 1260ZM761 875Q761 917 750 949T721 1005T679 1045T631 1072Q574 1097 501 1100Q428 1097 371 1072Q347 1061 324 1045T282 1005T252 949T241 875V370Q241 326 252 292T281 234T323 192T371 164Q428 138
501 135Q574 138 631 164Q655 175 678 192T720 233T750 292T761 370V875Z" />
<glyph unicode="1" glyph-name="one" horiz-adv-x="613" d="M509 1249V0H349V913Q303 880 240 859T88 834V994Q94 994 115 995T166 1003T227 1026T287 1069T331 1141T349 1249H509Z" />
<glyph unicode="2" glyph-name="two" horiz-adv-x="916" d="M745 703Q651 573 567 462Q531 415 495 367T425 277T365 201T319 150H804V0H87V150Q243 309 365 453Q417 514 467 578T556 702T620 814T644 902Q644 943 629 979T586 1042T523 1084T446 1100Q405 1100
369 1085T306 1042T264 979T248 902H87Q87 976 115 1041T191 1155T305 1232T445 1260Q520 1260 585 1232T699 1156T776 1042T804 902Q804 847 789 797T745 703Z" />
<glyph unicode="3" glyph-name="three" horiz-adv-x="939" d="M699 622Q760 573 796 501T832 344Q832 270 804 205T727 90T613 13T473 -15Q399 -15 334 13T219 90T142 204T114 344H275Q275 303 290 267T333 204T396 162T473 146Q514 146 550 161T613 204T655 267T671
344Q671 384 656 419T615 480T552 523T473 542V703Q514 703 550 718T613 761T655 824T671 901Q671 942 656 978T613 1041T550 1083T473 1099Q432 1099 396 1084T333 1041T291 978T275 901H114Q114 975 142 1040T218 1154T332 1231T472 1260Q547 1260 612 1232T726
1155T803 1041T831 901Q831 816 796 744T699 622Z" />
<glyph unicode="4" glyph-name="four" horiz-adv-x="1042" d="M807 308H953V158H807V0H647V158H41V308L648 1250H807V308ZM234 308H648V956L234 308Z" />
<glyph unicode="5" glyph-name="five" horiz-adv-x="989" d="M515 844Q591 844 649 828T752 784T827 722T878 651Q926 567 935 459V371Q926 262 878 178Q858 142 827 107T752 45T650 2T515 -15Q411 -15 340 14T223 88T150 183T112 277H274Q297 227 337 201T417
162Q464 148 515 146Q588 149 645 174Q669 184 692 200T734 240T764 296T775 371V459Q775 503 764 536T735 595T693 637T645 665Q588 691 515 694Q448 691 393 668Q370 658 347 643T305 607T273 556T256 487H95V1251H845V1091H255V769Q301 802 364 823T515 844Z"
/>
<glyph unicode="6" glyph-name="six" horiz-adv-x="1002" d="M82 459Q83 478 87 500Q90 519 96 543T114 597Q116 601 118 607T130 634T158 695T209 806T292 986T414 1250H572L380 830Q436 844 502 844Q578 844 637 828T740 784T814 722T865 651Q913 567 923 459V371Q913
262 865 178Q845 142 815 107T740 45T637 2T502 -15Q425 -15 367 1T264 45T190 107T139 178Q91 262 82 371V459ZM763 459Q763 503 752 536T722 595T680 637T632 665Q575 691 502 694Q429 691 372 665Q348 654 325 637T283 595T253 537T242 459V371Q242 329 253
297T282 242T324 202T372 175Q429 150 502 147Q575 150 632 175Q656 185 679 201T721 241T751 297T763 371V459Z" />
<glyph unicode="7" glyph-name="seven" horiz-adv-x="881" d="M829 1251V1101L400 0H240L669 1101H53V1251H829Z" />
<glyph unicode="8" glyph-name="eight" horiz-adv-x="916" d="M688 622Q749 573 785 501T821 344Q821 270 793 205T716 90T602 13T462 -15Q388 -15 323 13T208 90T131 204T103 344Q103 429 139 501T235 622Q175 672 139 744T103 901Q103 975 131 1040T208 1154T322
1231T462 1260Q536 1260 601 1232T715 1155T792 1041T820 901Q820 816 785 744T688 622ZM264 901Q264 860 279 824T322 761T385 719T462 703Q503 703 539 718T602 761T644 824T660 901Q660 942 645 978T602 1041T539 1083T462 1099Q421 1099 385 1084T322 1041T280
978T264 901ZM462 146Q503 146 539 161T603 204T645 267T661 344Q661 385 646 421T603 484T540 526T462 542Q421 542 385 527T322 484T280 421T264 344Q264 303 279 267T322 204T385 162T462 146Z" />
<glyph unicode="9" glyph-name="nine" horiz-adv-x="1032" d="M941 786Q940 767 936 745Q933 726 927 701T910 648Q908 644 906 638T894 612T866 553T814 442T732 264T610 0H452L644 415Q588 401 522 401Q445 401 387 417T284 461T209 522T158 593Q110 677 101
786V874Q110 982 158 1067Q178 1103 209 1137T284 1199T386 1243T522 1260Q598 1260 656 1244T759 1200T833 1138T884 1067Q932 982 941 874V786ZM261 786Q261 742 272 708T301 650T343 608T391 580Q448 554 522 551Q595 554 652 580Q676 591 699 608T741 649T771
708T782 786V874Q782 916 771 948T742 1004T700 1044T652 1071Q595 1096 522 1099Q448 1096 391 1071Q367 1060 344 1044T302 1004T272 948T261 874V786Z" />
<glyph unicode=":" glyph-name="colon" horiz-adv-x="367" d="M188 784Q165 784 146 792T112 816T89 850T80 892Q80 914 88 934T111 968T145 991T188 1000Q210 1000 229 992T264 969T287 934T296 892Q296 870 288 851T264 816T230 793T188 784ZM183 352Q205 352
225 344T259 321T282 286T291 244Q291 222 283 203T260 168T225 145T183 136Q160 136 141 144T107 168T84 202T75 244Q75 266 83 286T106 320T140 343T183 352Z" />
<glyph unicode=";" glyph-name="semicolon" horiz-adv-x="375" d="M199 784Q177 784 158 792T123 815T100 849T91 892Q91 914 99 933T123 968T157 991T199 1000Q221 1000 241 992T276 968T299 934T308 892Q308 869 300 850T276 816T241 793T199 784ZM65 -12Q62
-1 64 6T70 18Q74 23 80 27Q121 47 145 66T181 100T196 125T200 138Q177 138 158 146T123 169T100 203T91 245Q91 267 99 286T123 320T157 343T200 352Q222 352 242 344T276 321T299 287T309 245Q310 193 297 153T261 82T212 30T161 -5T118 -25T93 -34Q84 -37 79
-34T70 -26Q66 -21 65 -12Z" />
<glyph unicode="&lt;" glyph-name="less" horiz-adv-x="1166" d="M1054 117L113 442V727L1054 1053V878L234 586L1054 290V117Z" />
<glyph unicode="=" glyph-name="equal" horiz-adv-x="912" d="M93 462H809V312H93V462ZM93 782H809V632H93V782Z" />
<glyph unicode="&gt;" glyph-name="greater" horiz-adv-x="1116" d="M98 290L918 586L98 878V1053L1039 727V442L98 117V290Z" />
<glyph unicode="?" glyph-name="question" horiz-adv-x="812" d="M574 121Q574 69 539 34Q505 0 455 0Q404 0 369 35Q335 69 335 121Q335 173 369 206Q405 242 455 242Q501 242 539 206Q574 173 574 121ZM373 321V588Q373 626 381 658T405 719T442 774T489 825Q514
850 529 870T552 907T562 940T565 973Q565 1014 552 1044T515 1095T460 1126T395 1136Q331 1136 297 1124T246 1098Q228 1081 225 1061H89Q88 1062 88 1064Q87 1066 87 1073Q87 1084 90 1104T103 1148T133 1196T187 1241T272 1273T395 1286Q470 1286 522 1270T610
1227T665 1167T696 1101T708 1039T711 991V972Q711 950 707 927T692 876T661 818T610 748Q581 713 566 684T543 633Q534 608 533 588V321H373Z" />
<glyph unicode="@" glyph-name="at" horiz-adv-x="1437" d="M936 428Q933 418 931 409T929 391Q929 362 966 362Q999 362 1033 387T1094 454T1140 552T1158 672Q1158 766 1124 839T1033 962T899 1038T738 1064Q636 1064 550 1026T402 922T304 765T269 570Q269
465 306 376T407 222T559 121T747 84Q804 84 859 95T962 127T1052 178T1124 248H1274Q1237 182 1180 128T1052 36T902 -23T743 -44Q611 -44 498 4T301 136T169 333T121 576Q121 704 170 816T303 1011T499 1143T738 1192Q853 1192 956 1154T1137 1049T1259 888T1305
685Q1305 614 1287 552T1238 437T1167 343T1084 273T995 229T911 213Q868 213 836 239T799 312Q780 294 758 276T710 244T657 222T600 213Q546 213 503 234T429 291T382 376T365 481Q365 563 391 642T467 785T585 886T740 925Q795 925 842 900T916 816L937 894H1078L936
428ZM522 482Q522 426 547 394T628 362Q676 362 715 389T782 457T826 548T842 644Q842 671 836 695T819 737T790 767T748 778Q693 778 651 754T581 688T537 593T522 482Z" />
<glyph unicode="A" glyph-name="A" horiz-adv-x="1031" d="M511 1260Q587 1260 645 1244T748 1200T823 1138T874 1067Q922 983 931 875V0H771V531H251V0H91V875Q100 983 148 1067Q168 1103 198 1137T273 1199T375 1243T511 1260ZM771 681V875Q771 917 760 949T731
1005T689 1045T641 1072Q584 1097 511 1100Q438 1097 381 1072Q357 1061 334 1045T292 1005T262 949T251 875V681H771Z" />
<glyph unicode="B" glyph-name="B" horiz-adv-x="993" d="M793 618Q854 569 890 507T926 359Q926 285 898 220T820 105T705 28T566 0H85V1240H566Q641 1240 706 1214T820 1141T897 1030T925 892Q925 808 890 739T793 618ZM567 150Q608 150 644 167T707 214T749
280T765 359Q765 399 750 433T709 492T646 533T567 551H245V150H567ZM567 696Q608 696 644 711T707 752T749 815T765 892Q765 933 749 969T706 1032T643 1074T566 1090H245V696H567Z" />
<glyph unicode="C" glyph-name="C" horiz-adv-x="1024" d="M934 397V369Q925 261 877 177Q857 141 826 107T751 45T649 2T514 -15Q437 -15 379 1T276 45T202 106T151 177Q103 261 94 369V874Q103 982 151 1067Q171 1103 201 1137T276 1199T378 1243T514 1260Q590
1260 648 1244T751 1200T826 1138T877 1067Q925 982 934 874V847H774V874Q774 916 763 948T734 1005T692 1045T644 1072Q587 1097 514 1100Q441 1097 384 1072Q360 1061 337 1045T295 1005T265 949T254 874V369Q254 325 265 292T294 234T336 192T384 164Q441 138
514 135Q587 138 644 164Q668 175 691 192T733 233T763 291T774 369V397H934Z" />
<glyph unicode="D" glyph-name="D" horiz-adv-x="966" d="M96 0V1240H514Q590 1240 648 1224T751 1180T826 1119T877 1048Q925 964 934 856V384Q925 276 877 192Q857 156 826 122T751 60T649 17T514 0H96ZM256 1090V150H514Q587 153 644 179Q668 190 691 207T733
248T763 306T774 384V856Q774 900 763 933T734 991T692 1033T644 1061Q587 1087 514 1090H256Z" />
<glyph unicode="E" glyph-name="E" horiz-adv-x="939" d="M259 1090V659H751V509H259V150H920V0H99V1240H920V1090H259Z" />
<glyph unicode="F" glyph-name="F" horiz-adv-x="927" d="M249 0H89V1240H910V1090H249V659H741V509H249V0Z" />
<glyph unicode="G" glyph-name="G" horiz-adv-x="1093" d="M824 847V874Q824 916 813 948T784 1004T742 1044T694 1071Q637 1096 564 1099Q491 1096 434 1071Q410 1060 387 1044T345 1004T315 948T304 874V369Q304 325 315 292T344 234T386 192T434 164Q491 138
564 135Q637 138 694 164Q718 175 741 192T783 233T813 291T824 369V530H489V680H984V369Q975 261 927 177Q907 141 876 107T801 45T699 2T564 -15Q487 -15 429 1T326 45T252 106T201 177Q153 261 144 369V874Q153 982 201 1067Q221 1103 251 1137T326 1199T428
1243T564 1260Q640 1260 698 1244T801 1200T876 1138T927 1067Q975 982 984 874V847H824Z" />
<glyph unicode="H" glyph-name="H" horiz-adv-x="1081" d="M994 1240V0H834V498H249V0H89V1240H249V648H834V1240H994Z" />
<glyph unicode="I" glyph-name="I" horiz-adv-x="458" d="M314 1240V0H154V1240H314Z" />
<glyph unicode="J" glyph-name="J" horiz-adv-x="531" d="M430 370Q421 261 373 177Q353 141 322 107T247 45T145 2T10 -15V145Q83 148 140 173Q164 183 187 199T229 239T259 295T270 370V1240H430V370Z" />
<glyph unicode="K" glyph-name="K" horiz-adv-x="1008" d="M300 625L925 0H699L251 448V0H89V1250H251V802L699 1250H925L300 625Z" />
<glyph unicode="L" glyph-name="L" horiz-adv-x="820" d="M814 0H86V1261H246V150H814V0Z" />
<glyph unicode="M" glyph-name="M" horiz-adv-x="1216" d="M226 0H66V1240H226L606 419Q703 626 798 831T987 1240H1147V0H987V858L695 228H518L226 859V0Z" />
<glyph unicode="N" glyph-name="N" horiz-adv-x="1189" d="M1102 1240V0H894L246 1029V0H87V1240H319L942 210V1240H1102Z" />
<glyph unicode="O" glyph-name="O" horiz-adv-x="1028" d="M517 1260Q593 1260 651 1244T754 1200T829 1138T880 1067Q928 983 937 875V370Q928 261 880 177Q860 141 829 107T754 45T652 2T517 -15Q440 -15 382 1T279 45T205 106T154 177Q106 261 97 370V875Q106
983 154 1067Q174 1103 204 1137T279 1199T381 1243T517 1260ZM777 875Q777 917 766 949T737 1005T695 1045T647 1072Q590 1097 517 1100Q444 1097 387 1072Q363 1061 340 1045T298 1005T268 949T257 875V370Q257 326 268 292T297 234T339 192T387 164Q444 138
517 135Q590 138 647 164Q671 175 694 192T736 233T766 292T777 370V875Z" />
<glyph unicode="P" glyph-name="P" horiz-adv-x="959" d="M569 1240Q644 1240 709 1214T823 1140T900 1030T928 891Q928 817 900 754T823 644T709 571T569 544H248V0H88V1240H569ZM569 694Q610 694 646 709T709 751T752 814T768 891Q768 933 752 969T709 1032T646
1074T569 1090H248V694H569Z" />
<glyph unicode="Q" glyph-name="Q" horiz-adv-x="1112" d="M922 -11L847 87Q800 43 729 14T555 -15Q478 -15 420 1T317 45T243 106T192 177Q144 261 135 370V875Q144 983 192 1067Q212 1103 242 1137T317 1199T419 1243T555 1260Q631 1260 689 1244T792 1200T867
1138T918 1067Q966 983 976 875V370Q975 350 971 327Q967 307 960 282T942 227L1049 86L922 -11ZM555 135Q590 136 625 144Q655 151 689 166T753 209L610 393L737 491Q743 483 754 469Q763 457 777 438T815 390V875Q815 917 804 949T775 1005T733 1045T685 1072Q628
1097 555 1100Q482 1097 425 1072Q401 1061 378 1045T336 1005T307 949T296 875V370Q296 326 307 292T336 234T377 192T425 164Q482 138 555 135Z" />
<glyph unicode="R" glyph-name="R" horiz-adv-x="1025" d="M843 643Q864 627 883 604T916 550T940 476T949 381V0H788V381Q786 400 778 427T749 481T694 525T607 544H269V0H108V1240H590Q664 1240 729 1214T843 1140T920 1030T949 891Q949 816 921 753T843 643ZM590
694Q631 694 667 709T730 751T772 814T788 891Q788 933 773 969T730 1032T667 1074T590 1090H269V694H590Z" />
<glyph unicode="S" glyph-name="S" horiz-adv-x="958" d="M793 977L725 1021Q700 1037 669 1051T607 1077T547 1094T501 1100Q463 1100 429 1089T369 1056T328 1006T312 942Q312 884 336 844T401 772T492 717T596 668T701 614T792 545T856 449T881 316V307Q880
224 850 163T769 63T648 4T501 -15Q391 -15 314 9T185 64Q126 98 87 143L193 247Q212 228 244 208T316 172T403 146T499 136Q549 136 589 148T658 184T702 238T717 307Q717 362 693 399T628 463T537 511T433 555T329 608T238 682T174 789T149 942Q149 1029 180
1089T261 1188T374 1243T501 1260Q567 1260 621 1245T716 1213Q763 1193 800 1167L882 1111L793 977Z" />
<glyph unicode="T" glyph-name="T" horiz-adv-x="897" d="M863 1090H524V0H364V1090H31V1240H863V1090Z" />
<glyph unicode="U" glyph-name="U" horiz-adv-x="1101" d="M971 1240V375Q962 266 914 182Q894 146 863 112T788 50T686 7T551 -10Q454 -10 386 16T270 82T196 169T154 260T135 334T130 375V1240H291V375Q291 333 302 301T331 245T373 205T421 178Q478 153 551
150Q624 153 681 178Q705 188 728 204T770 244T800 300T811 375V1240H971Z" />
<glyph unicode="V" glyph-name="V" horiz-adv-x="1093" d="M1021 1240Q979 1108 933 961T836 655T734 332T629 0H461L70 1240H238L545 225L853 1240H1021Z" />
<glyph unicode="W" glyph-name="W" horiz-adv-x="1520" d="M372 0Q328 178 285 353T203 690T130 991T70 1240H235L459 225L684 1240H849L1074 225L1299 1240H1464L1162 0H986L767 901L547 0H372Z" />
<glyph unicode="X" glyph-name="X" horiz-adv-x="1289" d="M740 624L1222 0H1019Q928 119 833 242T639 493Q541 366 446 243T259 0H56L538 624L56 1250H258L639 755L1020 1250H1222L740 624Z" />
<glyph unicode="Y" glyph-name="Y" horiz-adv-x="1062" d="M1008 1250L607 430V0H447V430L43 1250H246L526 593L807 1250H1008Z" />
<glyph unicode="Z" glyph-name="Z" horiz-adv-x="1066" d="M971 1089L262 150H998V0H62V150L778 1089H62V1239H971V1089Z" />
<glyph unicode="[" glyph-name="bracketleft" horiz-adv-x="685" d="M597 1561V1411H309V-128H597V-278H149V1561H597Z" />
<glyph unicode="\" glyph-name="backslash" horiz-adv-x="1016" d="M737 -349L90 1500H250L897 -349H737Z" />
<glyph unicode="]" glyph-name="bracketright" horiz-adv-x="611" d="M517 1561V-278H69V-128H357V1411H69V1561H517Z" />
<glyph unicode="^" glyph-name="asciicircum" horiz-adv-x="1088" d="M107 419L397 1261H682L974 419H798L541 1140L281 419H107Z" />
<glyph unicode="_" glyph-name="underscore" horiz-adv-x="1120" d="M1033 -38V-198H101V-38H1033Z" />
<glyph unicode="`" glyph-name="grave" horiz-adv-x="387" d="M75 1201H214L341 886H201L75 1201Z" />
<glyph unicode="a" glyph-name="a" horiz-adv-x="954" d="M872 0H712V65Q666 32 603 11T452 -10Q375 -10 317 6T214 50T140 111T89 182Q41 266 32 375V555Q41 663 89 747Q109 783 139 817T214 879T316 923T452 940Q539 940 602 919T712 865V930H872V0ZM452 140Q525
143 582 169Q606 180 629 197T671 238T701 297T712 375V555Q712 597 701 629T672 685T630 725T582 752Q525 777 452 780Q379 777 322 752Q298 741 275 725T233 685T203 629T192 555V375Q192 331 203 297T232 239T274 197T322 169Q379 143 452 140Z" />
<glyph unicode="b" glyph-name="b" horiz-adv-x="959" d="M68 1280H228V865Q274 898 337 919T488 940Q564 940 622 924T725 880T800 818T851 747Q899 663 908 555V375Q899 266 851 182Q831 146 800 112T725 50T623 7T488 -10Q401 -10 338 11T228 65V0H68V1280ZM228
375Q228 331 239 297T268 239T310 197T358 169Q415 143 488 140Q560 143 617 169Q641 180 664 197T706 238T736 297T747 375V555Q747 597 736 629T707 685T665 725T617 752Q560 777 488 780Q415 777 358 752Q334 741 311 725T269 685T239 629T228 555V375Z" />
<glyph unicode="c" glyph-name="c" horiz-adv-x="935" d="M881 340Q878 317 869 282T841 208T792 130T717 60T610 10T465 -10Q388 -10 330 6T227 50T153 111T102 182Q54 266 45 375V555Q54 663 102 747Q122 783 152 817T227 879T329 923T465 940Q548 940 610 921T717
870T792 800T840 722T868 648T881 589H723Q718 625 705 652T672 699T630 733T584 756Q530 777 465 780Q392 777 335 752Q311 741 288 725T246 685T216 629T205 555V375Q205 331 216 297T245 239T287 197T335 169Q392 143 465 140Q530 143 585 165Q608 174 630 188T672
224T704 273T723 340H881Z" />
<glyph unicode="d" glyph-name="d" horiz-adv-x="947" d="M888 0H728V65Q682 32 619 11T468 -10Q391 -10 333 6T230 50T156 111T105 182Q57 266 48 375V555Q57 663 105 747Q125 783 155 817T230 879T332 923T468 940Q555 940 618 919T728 865V1280H888V0ZM728
375V555Q728 597 717 629T688 685T646 725T598 752Q541 777 468 780Q395 777 338 752Q314 741 291 725T249 685T220 629T209 555V375Q209 331 220 297T249 239T290 197T338 169Q395 143 468 140Q541 143 598 169Q622 180 645 197T687 238T717 297T728 375Z" />
<glyph unicode="e" glyph-name="e" horiz-adv-x="927" d="M203 439V375Q203 331 214 297T243 239T285 197T333 169Q390 143 463 140Q528 143 583 165Q606 174 628 188T670 224T702 273T721 340H880Q876 317 867 282T840 208T791 130T716 60T609 10T463 -10Q387
-10 329 6T226 50T152 111T101 182Q53 266 44 375V555Q53 663 101 747Q121 783 151 817T226 879T328 923T463 940Q546 940 608 921T716 870T791 800T839 722T867 648T880 589V439H203ZM463 780Q398 777 344 756Q321 747 299 733T257 699T224 652T206 589H721Q716
625 703 652T670 699T629 733T583 756Q529 777 463 780Z" />
<glyph unicode="f" glyph-name="f" horiz-adv-x="604" d="M629 1120Q563 1117 509 1096Q486 1087 464 1074T422 1040T389 993T371 930H533V780H369V0H209V780H44V930H212Q216 954 225 989T253 1063T302 1140T377 1210T484 1260T629 1280V1120V1120Z" />
<glyph unicode="g" glyph-name="g" horiz-adv-x="989" d="M912 931V25Q903 -84 855 -168Q835 -204 804 -238T729 -300T627 -343T492 -360Q390 -360 319 -331T201 -259T128 -166T90 -73H251Q274 -124 314 -151T394 -192Q441 -207 492 -209Q565 -206 622 -180Q646
-169 669 -152T711 -111T741 -53T752 25V65Q706 33 643 12T492 -10Q415 -10 357 6T254 50T180 111T129 182Q81 266 72 375V555Q81 663 129 747Q149 783 179 817T254 879T356 923T492 940Q579 940 642 920T752 865V931H912ZM752 555Q752 597 741 629T712 686T670
726T622 753Q565 778 492 781Q419 778 362 753Q338 742 315 726T273 686T243 630T232 555V375Q232 331 243 297T272 239T314 197T362 169Q419 143 492 140Q565 143 622 169Q646 180 669 197T711 238T741 297T752 375V555Z" />
<glyph unicode="h" glyph-name="h" horiz-adv-x="997" d="M497 940Q573 940 631 924T734 880T809 818T860 747Q908 663 917 555V0H757V555Q757 597 746 629T717 684T675 724T627 751Q570 776 497 779Q424 776 367 751Q343 740 320 724T278 685T248 629T237 555V0H77V1280H237V864Q282
897 345 918T497 940Z" />
<glyph unicode="i" glyph-name="i" horiz-adv-x="366" d="M182 1084Q160 1084 141 1092T106 1115T83 1149T74 1191Q74 1214 82 1233T106 1267T140 1290T182 1299Q204 1299 224 1291T259 1268T282 1234T291 1191Q291 1169 283 1150T259 1116T224 1093T182 1084ZM262
930V0H102V930H262Z" />
<glyph unicode="j" glyph-name="j" horiz-adv-x="531" d="M368 1082Q345 1082 326 1090T292 1113T270 1147T261 1189Q261 1212 269 1231T292 1265T325 1288T368 1297Q390 1297 410 1289T444 1266T467 1232T476 1189Q476 1167 468 1148T445 1114T410 1091T368 1082ZM455
25Q446 -84 398 -168Q378 -204 347 -238T272 -300T170 -343T35 -360V-200Q108 -197 165 -172Q189 -162 212 -146T254 -106T284 -50T295 25V930H455V25Z" />
<glyph unicode="k" glyph-name="k" horiz-adv-x="842" d="M287 492L820 0H594L238 315V0H76V1280H238V669L594 940H820L287 492Z" />
<glyph unicode="l" glyph-name="l" horiz-adv-x="369" d="M266 1280V0H106V1280H266Z" />
<glyph unicode="m" glyph-name="m" horiz-adv-x="1371" d="M1256 0H1096V555Q1096 597 1089 629T1071 685T1045 725T1015 752Q979 777 934 780Q891 777 858 752Q844 741 831 725T807 685T790 629T783 555V0H623V555Q623 597 617 629T600 685T575 725T547 752Q514
777 472 780Q426 777 391 752Q376 741 361 725T335 685T317 629T310 555V0H150V930H310V865Q320 876 332 889T363 913T408 932T470 940Q555 940 611 906T703 823Q737 872 793 906T936 940Q1008 940 1067 915T1168 840T1233 719T1256 555V0Z" />
<glyph unicode="n" glyph-name="n" horiz-adv-x="993" d="M497 940Q573 940 631 924T734 880T809 818T860 747Q908 663 917 555V0H757V555Q757 597 746 629T717 684T675 724T627 751Q570 776 497 779Q424 776 367 751Q343 740 320 724T278 685T248 629T237 555V0H77V930H237V864Q282
897 345 918T497 940Z" />
<glyph unicode="o" glyph-name="o" horiz-adv-x="927" d="M464 940Q540 940 598 924T701 880T775 818T826 747Q874 663 883 555V375Q874 266 826 182Q806 146 776 112T701 50T599 7T464 -10Q387 -10 329 6T226 50T152 111T101 182Q53 266 44 375V555Q53 663 101
747Q121 783 151 817T226 879T328 923T464 940ZM724 555Q724 597 713 629T684 685T642 725T594 752Q537 777 464 780Q390 777 333 752Q309 741 286 725T244 685T214 629T203 555V375Q203 331 214 297T243 239T285 197T333 169Q390 143 464 140Q537 143 594 169Q618
180 641 197T683 238T713 297T724 375V555Z" />
<glyph unicode="p" glyph-name="p" horiz-adv-x="970" d="M71 930H231V865Q277 898 340 919T491 940Q567 940 625 924T728 880T803 818T854 747Q902 663 911 555V375Q902 266 854 182Q834 146 803 112T728 50T626 7T491 -10Q404 -10 341 11T231 65V-360H71V930ZM231
555V375Q231 333 242 301T271 245T313 205T361 178Q418 153 491 150Q563 153 620 178Q644 188 667 204T709 244T739 300T750 375V555Q750 599 739 632T710 691T668 733T620 761Q563 787 491 790Q418 787 361 761Q337 750 314 733T272 691T242 633T231 555Z" />
<glyph unicode="q" glyph-name="q" horiz-adv-x="985" d="M912 -360H752V65Q706 32 643 11T492 -10Q415 -10 357 6T254 50T180 111T129 182Q81 266 72 375V555Q81 663 129 747Q149 783 179 817T254 879T356 923T492 940Q579 940 642 919T752 865V930H912V-360ZM752
555Q752 599 741 632T712 691T670 733T622 761Q565 787 492 790Q419 787 362 761Q338 750 315 733T273 691T244 633T233 555V375Q233 333 244 301T273 245T314 205T362 178Q419 153 492 150Q565 153 622 178Q646 188 669 204T711 244T741 300T752 375V555Z" />
<glyph unicode="r" glyph-name="r" horiz-adv-x="508" d="M68 0V930H228V865Q274 898 337 919T488 940V790Q415 787 358 761Q334 750 311 733T269 691T239 633T228 555V0H68Z" />
<glyph unicode="s" glyph-name="s" horiz-adv-x="675" d="M555 703Q474 754 420 776T340 798Q317 798 295 791T257 770T230 738T220 697Q220 663 235 637T274 591T329 555T393 523Q433 505 475 482T551 425T606 347T628 241V236Q628 172 605 126T543 49T452 5T340
-10Q271 -10 217 6T124 43T60 85T25 117L121 211Q139 196 164 181T219 155T278 136T339 128Q405 128 443 158T481 236Q481 265 468 288T432 330T382 363T324 391Q282 409 238 432T158 489T99 574T75 697Q75 764 98 810T159 885T244 927T340 940Q385 940 423 931T495
905T564 869T635 826L555 703Z" />
<glyph unicode="t" glyph-name="t" horiz-adv-x="558" d="M525 930V780H360V0H200V780H36V930H200V1280H362V930H525Z" />
<glyph unicode="u" glyph-name="u" horiz-adv-x="958" d="M883 930V375Q874 266 826 182Q806 146 775 112T700 50T598 7T463 -10Q386 -10 328 6T225 50T151 111T100 182Q52 266 43 375V930H203V375Q203 333 214 301T243 245T285 205T333 178Q390 153 463 150Q536
153 593 178Q617 188 640 204T682 244T712 300T723 375V930H883Z" />
<glyph unicode="v" glyph-name="v" horiz-adv-x="1008" d="M983 940L658 0H373L47 940H222L514 120L810 940H983Z" />
<glyph unicode="w" glyph-name="w" horiz-adv-x="1462" d="M1422 940L1122 0H935L728 660L522 0H336L36 940H218L430 190L641 940H816L1028 191L1239 940H1422Z" />
<glyph unicode="x" glyph-name="x" horiz-adv-x="1054" d="M427 472Q347 576 290 649T192 775T121 866T64 940H267L529 603L787 940H990L629 472Q719 354 810 236T991 0H792L529 340Q463 255 397 172T265 0H63L427 472Z" />
<glyph unicode="y" glyph-name="y" horiz-adv-x="931" d="M893 940L438 -355H251L380 0L52 940H236L473 257L710 940H893Z" />
<glyph unicode="z" glyph-name="z" horiz-adv-x="920" d="M847 790L302 150H847V0H64V150L613 790H64V940H847V790Z" />
<glyph unicode="{" glyph-name="braceleft" horiz-adv-x="827" d="M428 830Q428 745 393 673T297 552Q357 503 392 431T428 274V38Q428 -25 457 -71T531 -148T632 -192T742 -207V-357Q652 -355 567 -330T415 -255T309 -132T268 38V274Q268 314 253 349T212 410T149
453T71 472V632Q113 635 149 651T211 693T253 755T268 830V1065Q268 1162 308 1235T415 1357T566 1432T742 1460V1310Q688 1310 632 1296T531 1251T457 1175T428 1065V830V830Z" />
<glyph unicode="|" glyph-name="bar" horiz-adv-x="410" d="M285 -350H125V1499H285V-350Z" />
<glyph unicode="}" glyph-name="braceright" horiz-adv-x="883" d="M418 830V1065Q418 1128 389 1174T315 1251T214 1295T104 1310V1460Q194 1458 279 1433T431 1358T537 1235T578 1065V830Q578 790 593 755T634 694T697 651T775 632V472Q733 469 697 453T635
411T593 349T578 274V38Q578 -59 538 -132T431 -254T280 -329T104 -357V-207Q158 -207 214 -193T315 -148T389 -72T418 38V274Q418 359 453 431T549 552Q489 601 454 673T418 830Z" />
<glyph unicode="~" glyph-name="asciitilde" horiz-adv-x="964" d="M911 721Q888 662 858 623T792 560T720 526T644 516Q596 516 558 529T486 558T419 587T346 600Q305 600 276 583T226 545Q203 521 187 491L42 560Q43 563 45 567Q47 570 48 573T52 580Q81 641
114 679T181 738T248 768T310 776Q331 776 348 773T379 766Q394 762 407 757L523 702Q546 691 567 686T607 681Q647 681 677 698T727 735Q751 759 767 790L911 721Z" />
<glyph unicode="&#x80;" glyph-name="thothannobasethai" horiz-adv-x="1110" d="M974 1088Q974 1080 958 1061T919 1019T872 977T832 949Q872 902 898 834T924 665V0H763V297Q752 329 734 356T686 401Q658 418 627 427T557 437Q500 437 460 416V588Q503 600 557
600Q670 600 763 545V654Q756 722 726 777Q713 800 694 822T648 861T585 889T503 900Q430 895 373 868Q349 856 326 839T284 795T254 734T243 654H83V665Q83 681 86 717T102 800T142 896T215 986T332 1053T503 1080H512Q545 1080 579 1076T652 1060Q694 1066 733
1083Q766 1097 801 1125T859 1200Q888 1172 912 1148Q922 1138 932 1128T950 1110T965 1096T974 1088Z" />
</font>
</defs>
</svg>
